<?xml version="1.0" encoding="utf-8"?>
<!-- Generator: Adobe Illustrator 22.0.1, SVG Export Plug-In . SVG Version: 6.00 Build 0)  -->
<svg version="1.1" id="Layer_2_1_" xmlns="http://www.w3.org/2000/svg" xmlns:xlink="http://www.w3.org/1999/xlink" x="0px" y="0px"
	 viewBox="0 0 40 40" style="enable-background:new 0 0 40 40;" xml:space="preserve">
<style type="text/css">
	.st0{fill:#222222;}
</style>
<g>
	<path class="st0" d="M19,11.1l6.3,6.3c0.9,0.9,0.9,2.3,0,3.2l-4.7,4.7l0,0c-0.2,0.1-0.4,0.1-0.6,0s-0.2-0.4,0-0.6l0,0l4.7-4.7
		c0.6-0.6,0.6-1.5,0-2l-6.3-6.3c-0.6-0.6-1.5-0.6-2,0l-15,15c-0.6,0.6-0.6,1.5,0,2L7.8,35c0.6,0.6,1.5,0.6,2,0l7.5-7.5l0,0
		c0.2-0.2,0.4-0.2,0.6,0s0.2,0.4,0,0.6l0,0l-7.5,7.5c-0.9,0.9-2.3,0.9-3.2,0l-6.3-6.3c-0.9-1-0.9-2.4,0-3.3l15-15
		C16.7,10.2,18.2,10.2,19,11.1z"/>
	<path class="st0" d="M21,28.9l-6.3-6.3c-0.9-0.9-0.9-2.3,0-3.2l4.7-4.7l0,0c0.2-0.1,0.4-0.1,0.6,0s0.2,0.4,0,0.6l0,0L15.2,20
		c-0.6,0.6-0.6,1.5,0,2l6.3,6.3c0.6,0.6,1.5,0.6,2,0l15-15c0.6-0.6,0.6-1.5,0-2L32.2,5c-0.6-0.6-1.5-0.6-2,0l-7.5,7.5l0,0
		c-0.2,0.2-0.4,0.2-0.6,0s-0.2-0.4,0-0.6l0,0l7.5-7.5c0.9-0.9,2.3-0.9,3.2,0l6.3,6.3c0.9,0.9,0.9,2.3,0,3.2l-15,15
		C23.3,29.8,21.8,29.8,21,28.9z"/>
</g>
</svg>
