<?xml version="1.0" encoding="utf-8"?>
<!-- Generator: Adobe Illustrator 21.1.0, SVG Export Plug-In . SVG Version: 6.00 Build 0)  -->
<svg version="1.1" id="Layer_1" xmlns="http://www.w3.org/2000/svg" xmlns:xlink="http://www.w3.org/1999/xlink" x="0px" y="0px"
	 viewBox="0 0 40 40" style="enable-background:new 0 0 40 40;" xml:space="preserve">
<style type="text/css">
	.st0{fill:#FFFFFF;}
</style>
<g transform="translate(0,-952.36218)">
	<path class="st0" d="M28.4,952.4c-0.2,0-0.4,0.2-0.4,0.4V978c-0.1,0-0.1-0.1-0.2-0.1c-0.5-0.4-1.2-0.6-2-0.6
		c-1.3,0-2.2,0.7-2.7,1.4c-0.7-0.8-1.8-1.4-3.1-1.4s-2.4,0.6-3.1,1.4c-0.5-0.8-1.4-1.4-2.7-1.4c-0.8,0-1.5,0.2-2,0.6
		c-0.1,0-0.1,0.1-0.2,0.1v-25.1c0-0.2-0.2-0.4-0.4-0.5c0,0,0,0-0.1,0c-0.2,0-0.4,0.2-0.4,0.5v26.7c0,0.1,0,0.2,0.1,0.3l8.4,12.4
		c0.1,0.2,0.4,0.2,0.6,0.1l0.1-0.1l8.4-12.4c0.1-0.1,0.1-0.2,0.1-0.3v-26.7C28.9,952.6,28.7,952.4,28.4,952.4z M20,991.1l-2.8-4.1
		h5.6L20,991.1z M23.4,986.1h-6.8l-4.6-6.7c0-0.3,0.3-0.6,0.6-0.8c0.4-0.2,0.9-0.4,1.6-0.4c1.3,0,1.9,0.7,2.3,1.5
		c0.1,0.2,0.4,0.3,0.6,0.2c0.1,0,0.2-0.1,0.2-0.2c0.4-0.7,1.4-1.5,2.7-1.5s2.4,0.8,2.7,1.5c0.1,0.2,0.4,0.3,0.6,0.2
		c0.1,0,0.2-0.1,0.2-0.2c0.4-0.8,1-1.5,2.3-1.5c0.6,0,1.2,0.2,1.6,0.4s0.6,0.6,0.6,0.8L23.4,986.1z"/>
</g>
</svg>
