<?xml version="1.0" encoding="utf-8"?>
<!-- Generator: Adobe Illustrator 22.0.1, SVG Export Plug-In . SVG Version: 6.00 Build 0)  -->
<svg version="1.1" id="Layer_1" xmlns="http://www.w3.org/2000/svg" xmlns:xlink="http://www.w3.org/1999/xlink" x="0px" y="0px"
	 viewBox="0 0 40 40" style="enable-background:new 0 0 40 40;" xml:space="preserve">
<style type="text/css">
	.st0{fill:#222222;}
</style>
<g transform="translate(0,-952.36218)">
	<path class="st0" d="M32.8,960.5c-0.2,0-0.4,0.2-0.4,0.4c0,0.1,0.1,0.2,0.2,0.3l4,3.3H28c-2.1,0-3.8,1.1-5.3,2.6
		c-1.3,1.4-2.4,3.2-3.5,5c-1.1-1.8-2.1-3.6-3.4-5c-1.4-1.5-3-2.6-5.1-2.6H2.4H2.3c-0.2,0-0.4,0.2-0.4,0.4s0.2,0.4,0.4,0.4l0,0h8.4
		c1.8,0,3.2,0.9,4.5,2.4c1.3,1.4,2.4,3.3,3.5,5.2c-1.1,1.9-2.2,3.8-3.5,5.2c-1.3,1.5-2.7,2.4-4.5,2.4H2.4c-0.2,0-0.4,0.2-0.4,0.4
		s0.2,0.4,0.4,0.4l0,0h8.4c2,0,3.7-1.1,5.1-2.6c1.3-1.4,2.3-3.2,3.4-5c1.1,1.8,2.2,3.6,3.5,5c1.4,1.5,3.2,2.6,5.3,2.6h8.5l-3.9,3.3
		c-0.2,0.1-0.3,0.4-0.1,0.5c0.1,0.2,0.4,0.3,0.5,0.1c0,0,0.1,0,0.1-0.1l4.8-4c0.2-0.1,0.2-0.4,0-0.6l0,0l-4.8-4
		c-0.1-0.1-0.2-0.1-0.3-0.1c-0.2,0-0.4,0.2-0.4,0.4c0,0.1,0.1,0.2,0.2,0.3l4,3.3H28c-1.9,0-3.3-0.9-4.7-2.4
		c-1.3-1.4-2.4-3.3-3.6-5.2c1.1-1.9,2.3-3.8,3.6-5.2c1.3-1.5,2.8-2.4,4.7-2.4h8.5l-3.9,3.3c-0.2,0.1-0.3,0.4-0.1,0.5
		c0.1,0.2,0.4,0.3,0.5,0.1c0,0,0.1,0,0.1-0.1l4.8-4c0.2-0.1,0.2-0.4,0-0.6l0,0l-4.8-4C33,960.5,32.9,960.5,32.8,960.5z"/>
</g>
</svg>
