<?xml version="1.0" encoding="utf-8"?>
<!-- Generator: Adobe Illustrator 22.0.1, SVG Export Plug-In . SVG Version: 6.00 Build 0)  -->
<svg version="1.1" id="Layer_1" xmlns="http://www.w3.org/2000/svg" xmlns:xlink="http://www.w3.org/1999/xlink" x="0px" y="0px"
	 viewBox="0 0 40 40" style="enable-background:new 0 0 40 40;" xml:space="preserve">
<style type="text/css">
	.st0{fill:#222222;}
</style>
<g transform="translate(0,-952.36218)">
	<path class="st0" d="M20,952.4c-11,0-20,9-20,20s9,20,20,20s20-9,20-20C40,961.3,31,952.4,20,952.4z M20,953.2
		c5.9,0,11.2,2.7,14.7,6.9l-6.5,11.3l-10.5-18.1C18.5,953.3,19.2,953.2,20,953.2z M27.7,972.4l-3.8,6.7h-7.8l-3.9-6.6l3.8-6.7h7.8
		L27.7,972.4z M16.8,953.5l6.6,11.3h-21C4.9,959,10.3,954.6,16.8,953.5z M2.1,965.7h13L4.7,983.8c-2.4-3.2-3.8-7.2-3.8-11.5
		C0.9,970,1.3,967.8,2.1,965.7z M20,991.5c-5.9,0-11.2-2.7-14.7-6.9l6.5-11.3l10.5,18.1C21.5,991.4,20.8,991.5,20,991.5z
		 M23.2,991.2l-6.6-11.3h20.9C35,985.8,29.7,990.1,23.2,991.2z M25,979l10.3-18.1c2.4,3.2,3.8,7.2,3.8,11.5c0,2.3-0.4,4.6-1.2,6.7
		H25V979z"/>
</g>
</svg>
