<?xml version="1.0" encoding="utf-8"?>
<!-- Generator: Adobe Illustrator 21.1.0, SVG Export Plug-In . SVG Version: 6.00 Build 0)  -->
<svg version="1.1" id="Layer_1" xmlns="http://www.w3.org/2000/svg" xmlns:xlink="http://www.w3.org/1999/xlink" x="0px" y="0px"
	 viewBox="0 0 40 40" style="enable-background:new 0 0 40 40;" xml:space="preserve">
<style type="text/css">
	.st0{fill:#FFFFFF;}
</style>
<g>
	<path class="st0" d="M31.8,19.7c0.1,0,0.2,0.1,0.2,0.2c0,0.1,0,0.2,0,0.2c0,0-0.1,0.1-0.2,0.1l-11.6,0l0,11.6c0,0.1,0,0.1-0.1,0.2
		S20.1,32,20,32c-0.1,0-0.2-0.1-0.2-0.2V20.2l-11.6,0C8.1,20.2,8,20.1,8,20c0-0.1,0.1-0.2,0.2-0.2l11.6,0l0-11.6
		C19.7,8.1,19.8,8,20,8c0.1,0,0.2,0.1,0.2,0.2l0,11.6L31.8,19.7z"/>
</g>
</svg>
